#!OML:ASF F:\VICON\USERDATA\INSTALL\rory3\rory3.ASF
:FULLY-SPECIFIED
:DEGREES
826
root 6.86433 7.19813 -7.76408 182.113 66.1818 189.043
lowerback 42.5011 3.75662 3.0635
upperback 10.7707 8.71467 4.73258
thorax -8.3501 4.85441 -0.287723
lowerneck -13.4517 -8.93605 -14.6667
upperneck 29.9315 -9.30032 5.44318
head 13.3655 -4.6944 3.20083
rclavicle -4.05521e-014 -6.67916e-014
rhumerus 20.8067 7.604 -80.1453
rradius 23.2966
rwrist 18.0231
rhand -47.0961 -1.37574
rfingers 7.12502
rthumb -19.7997 -30.3873
lclavicle -4.05521e-014 -6.67916e-014
lhumerus -42.666 -34.1513 98.8025
lradius 100.734
lwrist -29.3308
lhand -59.2146 30.376
lfingers 7.12502
lthumb -31.4038 57.6997
rfemur -190.241 -76.7339 117.649
rtibia 158.64
rfoot -24.6624 21.4967
rtoes -1.40422
lfemur -113.889 65.4201 -43.4845
ltibia 156.911
lfoot -31.3529 -21.8624
ltoes -15.5842
827
root 6.89112 7.07697 -7.78359 181.735 66.2652 189.276
lowerback 42.7611 3.68242 3.08098
upperback 10.8262 8.66637 4.72211
thorax -8.35908 4.84248 -0.298679
lowerneck -13.5054 -8.88307 -14.5661
upperneck 29.9067 -9.31293 5.61534
head 13.368 -4.66956 3.24909
rclavicle -3.65764e-014 -4.92986e-014
rhumerus 20.8128 7.65872 -80.468
rradius 22.9858
rwrist 18.0283
rhand -47.1833 -2.31703
rfingers 7.12502
rthumb -19.8835 -31.3199
lclavicle -3.65764e-014 -4.92986e-014
lhumerus -42.5248 -34.0495 98.6662
lradius 101.006
lwrist -29.2898
lhand -59.1581 29.4744
lfingers 7.12502
lthumb -31.35 56.8086
rfemur -195.409 -76.5347 121.899
rtibia 159.538
rfoot -24.4432 21.2207
rtoes -3.19056
lfemur -116.347 67.453 -45.3082
ltibia 157.945
lfoot -31.3419 -22.1274
ltoes -15.7781
828
root 6.915 6.96104 -7.79707 181.353 66.3555 189.488
lowerback 43.0392 3.66207 2.93863
upperback 10.8631 8.62528 4.79494
thorax -8.42753 4.82757 -0.149399
lowerneck -13.5631 -8.82297 -14.5604
upperneck 29.9973 -9.26294 5.73868
head 13.4179 -4.63165 3.30673
rclavicle 5.48646e-014 -1.59028e-014
rhumerus 20.723 7.60901 -80.8848
rradius 22.7588
rwrist 18.4823
rhand -47.1374 -2.6068
rfingers 7.12502
rthumb -19.8393 -31.6142
lclavicle 5.48646e-014 -1.59028e-014
lhumerus -42.5188 -33.7718 98.6881
lradius 101.264
lwrist -29.3747
lhand -59.13 29.282
lfingers 7.12502
lthumb -31.3232 56.6214
rfemur -199.436 -76.3607 124.535
rtibia 160.473
rfoot -23.3399 21.7847
rtoes -1.96206
lfemur -118.642 69.1931 -46.7174
ltibia 158.923
lfoot -31.1543 -22.7481
ltoes -15.5017
829
root 6.93794 6.85185 -7.81634 180.974 66.3722 189.652
lowerback 43.268 3.61227 2.93665
upperback 10.8933 8.60439 4.86251
thorax -8.47068 4.82346 -0.0804889
lowerneck -13.514 -8.84235 -14.5195
upperneck 30.0467 -9.30447 5.72982
head 13.4304 -4.64615 3.29177
rclavicle -7.95139e-014 -3.02153e-014
rhumerus 20.5236 7.31987 -81.2719
rradius 22.6465
rwrist 18.9954
rhand -47.0449 -2.96323
rfingers 7.12502
rthumb -19.7504 -31.9798
lclavicle -7.95139e-014 -3.02153e-014
lhumerus -42.5727 -33.7776 98.8488
lradius 101.516
lwrist -29.3649
lhand -59.1456 29.482
lfingers 7.12502
lthumb -31.3381 56.8185
rfemur -205.279 -76.3208 128.567
rtibia 161.37
rfoot -22.0525 23.2514
rtoes 1.17795
lfemur -121.039 70.8471 -48.4486
ltibia 159.832
lfoot -31.3484 -22.8777
ltoes -16.2392
830
root 6.96032 6.75156 -7.83605 180.873 66.3463 190.15
lowerback 43.5809 3.51926 3.12654
upperback 10.9035 8.62331 4.93309
thorax -8.53716 4.83795 -0.125642
lowerneck -13.4505 -8.89053 -14.4007
upperneck 30.0541 -9.41425 5.72353
head 13.4246 -4.68205 3.25259
rclavicle -8.90555e-014 -2.38542e-014
rhumerus 20.2813 6.94403 -81.6299
rradius 22.52
rwrist 19.2302
rhand -46.9367 -3.76955
rfingers 7.12502
rthumb -19.6464 -32.7968
lclavicle -8.90555e-014 -2.38542e-014
lhumerus -42.6045 -34.0207 99.0513
lradius 101.724
lwrist -29.338
lhand -59.2246 29.6259
lfingers 7.12502
lthumb -31.4133 56.9478
rfemur -212.031 -76.2257 133.936
rtibia 162.134
rfoot -21.3148 24.6142
rtoes 2.94724
lfemur -123.866 72.4522 -50.1815
ltibia 160.676
lfoot -31.3224 -23.5802
ltoes -16.6144
831
root 6.97913 6.66619 -7.84879 180.732 66.4345 190.724
lowerback 44.1247 3.49263 3.19501
upperback 10.8943 8.69643 5.04865
thorax -8.71152 4.87198 -0.101076
lowerneck -13.434 -8.93821 -14.4374
upperneck 30.1045 -9.49782 5.79175
head 13.4598 -4.71417 3.27221
rclavicle -2.70347e-014 -1.59028e-014
rhumerus 20.0597 6.50572 -82.0528
rradius 22.2998
rwrist 19.5637
rhand -46.9236 -3.67552
rfingers 7.12502
rthumb -19.6338 -32.7041
lclavicle -2.70347e-014 -1.59028e-014
lhumerus -42.643 -34.0937 99.3106
lradius 101.921
lwrist -29.5151
lhand -59.1688 29.6264
lfingers 7.12502
lthumb -31.3602 56.9586
rfemur -218.265 -76.2658 139.32
rtibia 162.759
rfoot -21.0855 25.5561
rtoes 3.44667
lfemur -127.089 74.4836 -51.996
ltibia 161.394
lfoot -31.4136 -24.9374
ltoes -17.0314
832
root 6.99474 6.58948 -7.86547 180.304 66.5134 190.867
lowerback 44.5221 3.49417 3.14479
upperback 10.9062 8.72915 5.09916
thorax -8.82236 4.88996 -0.0590055
lowerneck -13.5439 -9.02326 -14.6706
upperneck 30.4182 -9.66885 6.21522
head 13.6823 -4.75833 3.45284
rclavicle -1.35174e-014 1.43125e-014
rhumerus 19.9459 5.82489 -82.6212
rradius 22.0485
rwrist 20.049
rhand -46.9109 -3.25991
rfingers 7.12502
rthumb -19.6216 -32.2897
lclavicle -1.35174e-014 1.43125e-014
lhumerus -42.5739 -34.0839 99.4404
lradius 102.166
lwrist -29.8699
lhand -58.9136 29.1341
lfingers 7.12502
lthumb -31.117 56.5132
rfemur -222.436 -76.3057 142.262
rtibia 163.303
rfoot -20.5434 26.2824
rtoes 3.50405
lfemur -130.273 76.1422 -54.1511
ltibia 162.012
lfoot -31.7558 -25.8316
ltoes -18.4931
833
root 7.01036 6.52038 -7.87908 180.228 66.5766 191.218
lowerback 44.7143 3.49053 3.08694
upperback 10.9647 8.74164 5.18889
thorax -8.83143 4.90244 0.0515076
lowerneck -13.8973 -9.12276 -15.1298
upperneck 30.9658 -9.84902 6.90565
head 14.1008 -4.79388 3.77974
rclavicle 6.83819e-014 -1.59028e-015
rhumerus 19.9638 5.33817 -83.1032
rradius 21.7737
rwrist 20.4703
rhand -46.9074 -3.07341
rfingers 7.12502
rthumb -19.6183 -32.1035
lclavicle 6.83819e-014 -1.59028e-015
lhumerus -42.424 -33.9981 99.5101
lradius 102.43
lwrist -30.1108
lhand -58.8262 28.3523
lfingers 7.12502
lthumb -31.0337 55.7473
rfemur -223.822 -76.3082 142.675
rtibia 163.781
rfoot -19.8106 26.8801
rtoes 3.86957
lfemur -132.922 77.3437 -55.5869
ltibia 162.536
lfoot -32.0172 -26.7487
ltoes -19.8312
834
root 7.02604 6.46918 -7.88075 180.323 66.761 191.81
lowerback 45.0074 3.61325 2.95604
upperback 11.0408 8.89268 5.33971
thorax -8.86873 4.97735 0.19739
lowerneck -14.0728 -9.19263 -15.3794
upperneck 31.2009 -10.0012 7.35036
head 14.3139 -4.82907 3.97838
rclavicle -1.16885e-013 -6.83819e-014
rhumerus 19.8672 5.04793 -83.366
rradius 21.6428
rwrist 20.8214
rhand -46.9665 -2.86185
rfingers 7.12502
rthumb -19.6751 -31.8862
lclavicle -1.16885e-013 -6.83819e-014
lhumerus -42.3053 -34.0254 99.6954
lradius 102.633
lwrist -30.4092
lhand -58.8995 28.5223
lfingers 7.12502
lthumb -31.1035 55.904
rfemur -225.463 -76.3819 143.989
rtibia 164.159
rfoot -19.2175 27.9712
rtoes 6.04751
lfemur -134.59 78.9817 -55.7562
ltibia 162.884
lfoot -32.483 -28.3176
ltoes -20.1379
835
root 7.03981 6.42496 -7.8855 180.207 66.9029 192.16
lowerback 45.3055 3.72676 2.81518
upperback 11.1038 9.01888 5.43437
thorax -8.91295 5.0409 0.29837
lowerneck -14.083 -9.20364 -15.3485
upperneck 31.1687 -10.0862 7.51412
head 14.3214 -4.84271 4.02423
rclavicle -4.13472e-014 2.8625e-014
rhumerus 19.6536 4.8851 -83.532
rradius 21.6734
rwrist 20.9305
rhand -47.035 -2.67715
rfingers 7.12502
rthumb -19.7409 -31.6947
lclavicle -4.13472e-014 2.8625e-014
lhumerus -42.204 -34.1829 99.8786
lradius 102.845
lwrist -30.6123
lhand -58.9355 28.3675
lfingers 7.12502
lthumb -31.1379 55.7426
rfemur -227.36 -76.4735 145.21
rtibia 164.494
rfoot -18.3601 28.5133
rtoes 7.28063
lfemur -136.139 80.4075 -56.0216
ltibia 163.198
lfoot -32.6324 -30.0074
ltoes -19.4424
836
root 7.05073 6.38432 -7.89487 180.131 66.9611 192.492
lowerback 45.5485 3.74055 2.83094
upperback 11.1568 9.08347 5.47805
thorax -8.92364 5.07852 0.298664
lowerneck -14.0729 -9.20044 -15.179
upperneck 31.1034 -10.132 7.49668
head 14.2812 -4.84614 3.9786
rclavicle 1.08934e-013 4.45278e-014
rhumerus 19.6589 4.5387 -83.8339
rradius 21.5112
rwrist 21.2653
rhand -47.0821 -2.68361
rfingers 7.12502
rthumb -19.7863 -31.6965
lclavicle 1.08934e-013 4.45278e-014
lhumerus -42.0884 -34.494 100.028
lradius 103.082
lwrist -30.4656
lhand -58.9705 27.6565
lfingers 7.12502
lthumb -31.1712 55.0252
rfemur -229.265 -76.57 146.3
rtibia 164.774
rfoot -17.2445 29.0911
rtoes 8.66471
lfemur -137.738 81.2733 -56.4431
ltibia 163.492
lfoot -32.372 -31.4809
ltoes -18.7213
837
root 7.06115 6.35077 -7.90213 179.925 67.0262 192.61
lowerback 45.7071 3.77783 2.77739
upperback 11.2429 9.14241 5.53968
thorax -8.88614 5.11606 0.361144
lowerneck -14.0499 -9.22915 -15.1655
upperneck 30.9798 -10.1989 7.52487
head 14.231 -4.87281 3.97166
rclavicle 1.59028e-014 -1.74931e-014
rhumerus 19.8992 3.81072 -84.3547
rradius 21.1046
rwrist 22.2101
rhand -46.9613 -3.13765
rfingers 7.12502
rthumb -19.67 -32.1625
lclavicle 1.59028e-014 -1.74931e-014
lhumerus -41.9314 -34.7993 100.222
lradius 103.263
lwrist -30.3177
lhand -59.0963 27.702
lfingers 7.12502
lthumb -31.2911 55.0476
rfemur -231.934 -76.4491 148.474
rtibia 165.017
rfoot -16.5433 29.7915
rtoes 10.261
lfemur -139.088 82.0082 -56.8879
ltibia 163.74
lfoot -32.2871 -32.6687
ltoes -18.1969
838
root 7.06725 6.32548 -7.908 179.721 67.0782 192.679
lowerback 45.9405 3.9815 2.85589
upperback 11.3539 9.464 5.52418
thorax -8.8114 5.28124 0.160689
lowerneck -14.3091 -9.49332 -14.5516
upperneck 30.8877 -10.6964 7.38793
head 14.2592 -5.03154 3.70657
rclavicle -3.65764e-014 -6.36111e-015
rhumerus 19.8305 2.69951 -84.5337
rradius 21.1801
rwrist 22.5023
rhand -46.8553 -3.40231
rfingers 7.12502
rthumb -19.5681 -32.4376
lclavicle -3.65764e-014 -6.36111e-015
lhumerus -41.5291 -35.8027 100.27
lradius 103.385
lwrist -30.3718
lhand -59.1531 28.3714
lfingers 7.12502
lthumb -31.3452 55.7065
rfemur -233.828 -76.2527 150.156
rtibia 165.187
rfoot -17.4078 29.2983
rtoes 5.23173
lfemur -139.187 82.4188 -56.3342
ltibia 163.928
lfoot -32.1762 -33.3959
ltoes -17.8942
839
root 7.0693 6.31469 -7.91015 179.817 67.1757 193.172
lowerback 46.2991 4.01903 2.87827
upperback 11.4426 9.58334 5.61585
thorax -8.81841 5.34693 0.180079
lowerneck -14.3686 -9.51423 -14.4072
upperneck 30.7596 -10.7291 7.26144
head 14.1986 -5.04752 3.61822
rclavicle -3.18055e-015 7.95139e-015
rhumerus 19.4109 3.25121 -83.9567
rradius 21.6367
rwrist 21.4964
rhand -46.7332 -3.33885
rfingers 7.12502
rthumb -19.4507 -32.386
lclavicle -3.18055e-015 7.95139e-015
lhumerus -41.2405 -36.0221 100.33
lradius 103.558
lwrist -30.5683
lhand -59.0783 28.8995
lfingers 7.12502
lthumb -31.274 56.2484
rfemur -235.946 -76.2671 152.526
rtibia 165.262
rfoot -17.0718 29.9897
rtoes 6.65181
lfemur -138.427 82.9683 -54.794
ltibia 163.993
lfoot -32.1504 -34.0362
ltoes -18.4966
